<?xml version="1.0" encoding="UTF-8"?>
<svg id="Ebene_2" data-name="Ebene 2" xmlns="http://www.w3.org/2000/svg" viewBox="0 0 83.74 63.32">
  <defs>
    <style>
      .cls-1 {
        fill: #fff;
        stroke-width: 0px;
      }
    </style>
  </defs>
  <g id="Ebene_1-2" data-name="Ebene 1">
    <g>
      <path class="cls-1" d="m2.14,12.32h-1.13c-.21,0-.33,0-.37-.02-.2,0-.37-.11-.52-.32-.08-.11-.12-.24-.12-.37v-.1s.02-.11.07-.17c.07-.06.16-.15.29-.25l.05-.02s.05,0,.05-.02c.8-.29,3.47-1.02,8-2.19,4.53-1.16,9.65-2.19,15.34-3.09,4.17-.65,7.82-.98,10.95-.98,3.72,0,5.57.29,5.57.88,0,.2-.07.37-.22.52-.1.08-.22.12-.37.12-1.47-.25-3.11-.37-4.91-.37-3.16,0-6.82.32-10.97.96-6.6,1.02-13.18,2.42-19.74,4.22h2.65c.31,0,.47.19.47.56-.02.16-.07.3-.17.42-.1.11-.21.17-.34.17h-3.46l-1.13.05Zm9.16,31.89c-.26,0-.39-.29-.39-.88,0-.54.29-2.43.86-5.67,1.28-7,2.87-15.34,4.79-25.02-.13-.28-.2-.61-.2-.98,0-.7.15-1.41.44-2.11.11-.31.23-.54.34-.69.23-.29.42-.44.56-.44.2,0,.33.24.39.71l.02.22c0,.26-.05.65-.15,1.15-1.26,6.27-2.35,11.85-3.27,16.74-1.54,8.05-2.45,13-2.73,14.85-.02.13-.04.29-.06.47-.02.18-.04.35-.04.52v.07c.08.05.12.11.12.2,0,.13-.07.31-.21.53s-.31.33-.5.33Z"/>
      <path class="cls-1" d="m24.62,34.84c-.11,0-.22-.07-.32-.22-.16-.25-.25-.47-.25-.69,0-.29.13-.53.39-.71.16-.11.33-.17.49-.17.13,0,.25.04.37.12.16.11.25.27.25.47,0,.23-.15.52-.44.88-.18.21-.34.32-.49.32Z"/>
      <path class="cls-1" d="m58.41,43.87c-1.42,0-2.69-.18-3.81-.54-1.59-.49-2.55-1.38-2.9-2.68l-.02-.15c0-.11.03-.23.1-.34.11-.2.27-.29.47-.29.26,0,.42.14.47.42.25.88.99,1.52,2.23,1.92,1.01.33,2.18.49,3.49.49,2.7,0,5.33-.56,7.88-1.67,3.26-1.42,5.07-3.37,5.45-5.84l.02-.42c0-1.31-.66-2.48-1.99-3.51-1.38-1.08-3.18-1.96-5.4-2.63l-.2.07c-3.24.92-6.02,1.49-8.32,1.72l-.86,7.17c-.07.36-.26.54-.59.54-.29-.03-.44-.21-.44-.54l.83-7.1c-.44.03-.85.05-1.23.05-2.46,0-3.68-.6-3.68-1.79,0-1.69,1.81-2.55,5.43-2.6l1.23-10.14c-.16,0-.3-.05-.41-.15-.11-.1-.16-.34-.16-.71,0-.18.02-.35.05-.5.03-.16.07-.3.11-.44.04-.14.09-.27.16-.39.07-.12.14-.23.21-.32.07-.09.15-.18.23-.27.08-.09.17-.16.27-.22.1-.06.22-.09.37-.09.21.05.35.13.41.23.06.11.09.24.09.4l-1.5,12.59c2.49,0,5.18.43,8.08,1.28,2.8-.83,5.52-1.86,8.16-3.08,2.64-1.22,4.88-2.59,6.71-4.11,2.24-1.85,3.36-3.75,3.36-5.7,0-1.26-.49-2.43-1.47-3.51-.98-1.08-2.47-2.02-4.46-2.82-1.99-.8-4.23-1.42-6.71-1.84-3.24-.52-6.39-.79-9.45-.79-1.38,0-2.73.05-4.08.15-4.29.33-7.17,1.08-8.64,2.26-.26.23-.39.48-.39.76,0,.31.16.65.49,1.03.1.11.15.25.15.39,0,.16-.05.31-.16.43-.11.12-.25.18-.43.18-.11,0-.21-.04-.29-.12-.57-.67-.86-1.3-.86-1.89s.29-1.17.88-1.69c1.67-1.34,4.75-2.19,9.26-2.53,1.34-.1,2.7-.15,4.08-.15,3.16,0,6.39.27,9.7.81,5.89,1.02,9.91,2.83,12.05,5.45.92,1.1,1.38,2.37,1.38,3.81,0,.36-.03.74-.1,1.13-.36,1.77-1.4,3.43-3.12,4.98-1.72,1.56-3.83,2.97-6.33,4.24-2.5,1.27-5.13,2.34-7.88,3.23,2.03.75,3.66,1.74,4.89,2.95,1.08,1.05,1.62,2.28,1.62,3.71l-.02.56c-.23,1.56-.91,2.91-2.04,4.05-1.13,1.15-2.5,2.08-4.12,2.8-2.68,1.18-5.43,1.77-8.22,1.77Zm-4.71-14.51c.39,0,.82-.02,1.28-.05l.25-1.99c-1.01.02-1.89.11-2.63.29-1.08.25-1.63.59-1.64,1.03.02.16.2.3.54.42.54.2,1.28.29,2.21.29Zm2.33-.15c1.82-.2,3.86-.59,6.14-1.18-2.05-.44-4.02-.68-5.92-.71l-.22,1.89Z"/>
      <path class="cls-1" d="m78.54,34.84c-.11,0-.22-.07-.32-.22-.16-.25-.25-.47-.25-.69,0-.29.13-.53.39-.71.16-.11.33-.17.49-.17.13,0,.25.04.37.12.16.11.25.27.25.47,0,.23-.15.52-.44.88-.18.21-.34.32-.49.32Z"/>
    </g>
  </g>
</svg>